<svg width="14" height="12" viewBox="0 0 14 12" fill="none" xmlns="http://www.w3.org/2000/svg">
<path d="M6.99998 11.9998L1.37498 6.42877C1.00396 6.06773 0.711713 5.63378 0.516643 5.15424C0.321572 4.67471 0.227903 4.15998 0.241535 3.64247C0.255167 3.12495 0.375804 2.61587 0.59585 2.14727C0.815896 1.67867 1.13058 1.26071 1.5201 0.919701C1.90961 0.578695 2.36551 0.322033 2.85909 0.165877C3.35267 0.00972107 3.87324 -0.0425457 4.38801 0.0123675C4.90278 0.0672806 5.40061 0.228184 5.85014 0.484946C6.29967 0.741708 6.69117 1.08877 6.99998 1.50427C7.31013 1.09178 7.70208 0.747757 8.15131 0.49372C8.60053 0.239683 9.09735 0.0811035 9.61068 0.0279064C10.124 -0.0252907 10.6428 0.0280399 11.1346 0.18456C11.6263 0.341081 12.0805 0.597421 12.4686 0.937539C12.8568 1.27766 13.1706 1.69423 13.3903 2.16119C13.61 2.62814 13.731 3.13543 13.7457 3.6513C13.7604 4.16717 13.6684 4.68051 13.4756 5.1592L12.5665 6.43327L6.99998 11.9998Z" fill="white"/>
</svg>
