<svg width="16" height="16" viewBox="0 0 16 16" fill="none" xmlns="http://www.w3.org/2000/svg">
<path d="M8.66667 3.33329L14 3.33329M8.66667 5.99996L12 5.99996M8.66667 9.99996L14 9.99996M8.66667 12.6666H12M2.66667 2.66663L5.33333 2.66663C5.70152 2.66663 6 2.9651 6 3.33329L6 5.99996C6 6.36815 5.70152 6.66663 5.33333 6.66663H2.66667C2.29848 6.66663 2 6.36815 2 5.99996L2 3.33329C2 2.9651 2.29848 2.66663 2.66667 2.66663ZM2.66667 9.33329H5.33333C5.70152 9.33329 6 9.63177 6 9.99996L6 12.6666C6 13.0348 5.70152 13.3333 5.33333 13.3333H2.66667C2.29848 13.3333 2 13.0348 2 12.6666L2 9.99996C2 9.63177 2.29848 9.33329 2.66667 9.33329Z" stroke="black" stroke-linecap="round" stroke-linejoin="round"/>
</svg>
