<svg width="40" height="40" viewBox="0 0 40 40" fill="none" xmlns="http://www.w3.org/2000/svg">
<path d="M20.0001 23.3334C22.7615 23.3334 25.0001 21.0948 25.0001 18.3334C25.0001 15.572 22.7615 13.3334 20.0001 13.3334C17.2387 13.3334 15.0001 15.572 15.0001 18.3334C15.0001 21.0948 17.2387 23.3334 20.0001 23.3334Z" stroke="#EE1C25" stroke-width="2" stroke-linecap="round" stroke-linejoin="round"/>
<path d="M29.4284 27.7617L22.3568 34.8333C21.7317 35.4577 20.8844 35.8085 20.0009 35.8085C19.1174 35.8085 18.2701 35.4577 17.6451 34.8333L10.5718 27.7617C8.70712 25.8969 7.43731 23.5212 6.9229 20.9348C6.40849 18.3484 6.67257 15.6675 7.68176 13.2312C8.69095 10.7949 10.3999 8.71257 12.5926 7.24751C14.7852 5.78246 17.363 5.00049 20.0001 5.00049C22.6371 5.00049 25.215 5.78246 27.4076 7.24751C29.6003 8.71257 31.3092 10.7949 32.3184 13.2312C33.3276 15.6675 33.5917 18.3484 33.0773 20.9348C32.5629 23.5212 31.2931 25.8969 29.4284 27.7617Z" stroke="#EE1C25" stroke-width="2" stroke-linecap="round" stroke-linejoin="round"/>
</svg>
