<svg width="146" height="43" viewBox="0 0 146 43" fill="none" xmlns="http://www.w3.org/2000/svg">
<path fill-rule="evenodd" clip-rule="evenodd" d="M8.704 25.49C10.3133 26.102 12.0587 26.408 13.94 26.408C16.456 26.408 18.6547 25.8753 20.536 24.81C22.44 23.7446 23.9133 22.192 24.956 20.152C26.0213 18.112 26.554 15.6413 26.554 12.74V11.72H13.124V17.16L19.1941 17.3434C19.146 17.4545 19.0947 17.5634 19.04 17.67C18.6093 18.554 17.9747 19.234 17.136 19.71C16.2973 20.186 15.266 20.424 14.042 20.424C12.7727 20.424 11.662 20.152 10.71 19.608C9.758 19.064 9.01 18.3046 8.466 17.33C7.94467 16.3326 7.684 15.1766 7.684 13.862C7.684 12.5473 7.96733 11.4026 8.534 10.428C9.12333 9.45331 9.90533 8.70531 10.88 8.18397C11.8547 7.63997 12.9427 7.36797 14.144 7.36797C15.4133 7.36797 16.5013 7.60597 17.408 8.08197C18.3147 8.55797 19.1873 9.28331 20.026 10.258L24.616 5.66797C23.5053 4.35331 22.0547 3.31064 20.264 2.53997C18.496 1.76931 16.49 1.38397 14.246 1.38397C12.3873 1.38397 10.642 1.70131 9.01 2.33597C7.378 2.94797 5.93867 3.82064 4.692 4.95397C3.468 6.06464 2.50467 7.37931 1.802 8.89797C1.122 10.4166 0.782 12.0826 0.782 13.896C0.782 15.6866 1.11067 17.3413 1.768 18.86C2.42533 20.3786 3.34333 21.7046 4.522 22.838C5.72333 23.9713 7.11733 24.8553 8.704 25.49ZM32.2618 25.32C33.7351 26.0453 35.4464 26.408 37.3958 26.408C38.9144 26.408 40.2631 26.17 41.4417 25.694C42.6204 25.218 43.6291 24.504 44.4678 23.552L41.1357 20.254C40.6371 20.8206 40.0818 21.24 39.4697 21.512C38.8804 21.7613 38.1891 21.886 37.3958 21.886C36.5798 21.886 35.8997 21.7273 35.3558 21.41C34.8118 21.0926 34.3924 20.628 34.0978 20.016C34.0569 19.9205 34.019 19.8218 33.9843 19.7197L45.4878 19.642C45.6011 19.1433 45.6691 18.7126 45.6918 18.35C45.7371 17.9646 45.7598 17.602 45.7598 17.262C45.7598 15.63 45.3744 14.1793 44.6038 12.91C43.8558 11.6406 42.8131 10.6546 41.4757 9.95197C40.1384 9.22664 38.5971 8.86397 36.8517 8.86397C35.0838 8.86397 33.4971 9.24931 32.0917 10.02C30.6864 10.768 29.5758 11.7993 28.7598 13.114C27.9664 14.4286 27.5697 15.936 27.5697 17.636C27.5697 19.3586 27.9778 20.8886 28.7938 22.226C29.6324 23.5406 30.7884 24.572 32.2618 25.32ZM33.9656 15.6351C33.9958 15.54 34.0285 15.4476 34.0638 15.358C34.3358 14.7233 34.7211 14.236 35.2197 13.896C35.7184 13.556 36.3078 13.386 36.9878 13.386C37.6451 13.386 38.1891 13.5333 38.6198 13.828C39.0504 14.1226 39.3678 14.5646 39.5718 15.154C39.6258 15.2892 39.6735 15.434 39.7146 15.5886L33.9656 15.6351ZM49.6615 14.712V26H56.3255V14.712H59.8955V9.27197H56.3255V2.40397H49.6615V9.27197H46.0915V14.712H49.6615ZM74.4682 9.27197H67.8042V26H74.4682V9.27197ZM68.6882 6.72197C69.3456 7.37931 70.1616 7.70797 71.1362 7.70797C72.1336 7.70797 72.9496 7.37931 73.5842 6.72197C74.2189 6.04197 74.5362 5.21464 74.5362 4.23997C74.5362 3.26531 74.2189 2.44931 73.5842 1.79197C72.9496 1.11197 72.1336 0.771973 71.1362 0.771973C70.1616 0.771973 69.3456 1.11197 68.6882 1.79197C68.0536 2.44931 67.7362 3.26531 67.7362 4.23997C67.7362 5.21464 68.0536 6.04197 68.6882 6.72197ZM79.8432 14.712V26H86.5072V14.712H90.0772V9.27197H86.5072V2.40397H79.8432V9.27197H76.2732V14.712H79.8432ZM3.6 34.5C3.968 34.34 4.38 34.26 4.836 34.26C5.22 34.26 5.572 34.308 5.892 34.404C6.22 34.5 6.516 34.608 6.78 34.728L7.212 33.816C6.892 33.656 6.528 33.532 6.12 33.444C5.712 33.356 5.288 33.312 4.848 33.312C4.184 33.312 3.596 33.42 3.084 33.636C2.572 33.844 2.14 34.144 1.788 34.536C1.444 34.928 1.18 35.392 0.996 35.928C0.82 36.464 0.732 37.056 0.732 37.704C0.732 38.6 0.876 39.38 1.164 40.044C1.46 40.708 1.9 41.22 2.484 41.58C3.068 41.94 3.796 42.12 4.668 42.12C5.14 42.12 5.544 42.092 5.88 42.036C6.224 41.98 6.556 41.892 6.876 41.772V40.836C6.556 40.932 6.228 41.012 5.892 41.076C5.556 41.14 5.2 41.172 4.824 41.172C4.168 41.172 3.62 41.032 3.18 40.752C2.748 40.472 2.42 40.072 2.196 39.552C1.98 39.032 1.872 38.42 1.872 37.716C1.872 37.18 1.94 36.7 2.076 36.276C2.212 35.844 2.408 35.48 2.664 35.184C2.92 34.88 3.232 34.652 3.6 34.5ZM12.43 42H13.498V35.568H9.62203C9.56603 36.344 9.50203 37.04 9.43003 37.656C9.35803 38.272 9.27403 38.808 9.17803 39.264C9.08203 39.712 8.97403 40.084 8.85403 40.38C8.74203 40.676 8.61403 40.896 8.47003 41.04C8.32603 41.184 8.16603 41.256 7.99003 41.256C7.93403 41.256 7.87803 41.252 7.82203 41.244C7.76603 41.236 7.71403 41.224 7.66603 41.208V42C7.73003 42.032 7.81003 42.052 7.90603 42.06C8.01003 42.076 8.11403 42.084 8.21803 42.084C8.56203 42.084 8.86203 41.98 9.11803 41.772C9.37403 41.564 9.59403 41.236 9.77803 40.788C9.96203 40.34 10.114 39.76 10.234 39.048C10.354 38.328 10.454 37.46 10.534 36.444H12.43V42ZM20.9155 40.2C21.0595 39.784 21.1315 39.308 21.1315 38.772C21.1315 38.06 21.0035 37.46 20.7475 36.972C20.4995 36.476 20.1515 36.1 19.7035 35.844C19.2635 35.58 18.7515 35.448 18.1675 35.448C17.5515 35.448 17.0195 35.58 16.5715 35.844C16.1235 36.1 15.7795 36.476 15.5395 36.972C15.2995 37.46 15.1795 38.06 15.1795 38.772C15.1795 39.308 15.2515 39.784 15.3955 40.2C15.5475 40.608 15.7555 40.956 16.0195 41.244C16.2835 41.532 16.5955 41.752 16.9555 41.904C17.3155 42.048 17.7075 42.12 18.1315 42.12C18.5875 42.12 18.9995 42.048 19.3675 41.904C19.7435 41.752 20.0595 41.532 20.3155 41.244C20.5795 40.956 20.7795 40.608 20.9155 40.2ZM16.4635 40.092C16.3355 39.716 16.2715 39.276 16.2715 38.772C16.2715 38.012 16.4195 37.416 16.7155 36.984C17.0115 36.552 17.4875 36.336 18.1435 36.336C18.5835 36.336 18.9395 36.436 19.2115 36.636C19.4915 36.828 19.6995 37.104 19.8355 37.464C19.9715 37.824 20.0395 38.26 20.0395 38.772C20.0395 39.276 19.9715 39.716 19.8355 40.092C19.7075 40.46 19.5035 40.744 19.2235 40.944C18.9435 41.144 18.5875 41.244 18.1555 41.244C17.7235 41.244 17.3675 41.144 17.0875 40.944C16.8075 40.744 16.5995 40.46 16.4635 40.092ZM26.7292 36.456V35.568H22.8052V42H23.8612V36.456H26.7292ZM32.1726 35.976C31.7966 35.632 31.2166 35.46 30.4326 35.46C30.0166 35.46 29.6166 35.516 29.2326 35.628C28.8486 35.732 28.5166 35.86 28.2366 36.012L28.5606 36.804C28.8246 36.676 29.1086 36.564 29.4126 36.468C29.7166 36.364 30.0366 36.312 30.3726 36.312C30.7966 36.312 31.1246 36.416 31.3566 36.624C31.5886 36.832 31.7046 37.204 31.7046 37.74V38.124L30.6126 38.16C29.5646 38.192 28.7886 38.384 28.2846 38.736C27.7806 39.08 27.5286 39.572 27.5286 40.212C27.5286 40.644 27.6166 41.004 27.7926 41.292C27.9686 41.572 28.2086 41.78 28.5126 41.916C28.8246 42.052 29.1726 42.12 29.5566 42.12C29.9166 42.12 30.2206 42.084 30.4686 42.012C30.7246 41.94 30.9486 41.828 31.1406 41.676C31.3406 41.516 31.5326 41.32 31.7166 41.088H31.7646L31.9686 42H32.7366V37.62C32.7366 36.868 32.5486 36.32 32.1726 35.976ZM29.0766 39.276C29.3886 39.052 29.9446 38.924 30.7446 38.892L31.6926 38.856V39.432C31.6926 40.056 31.5126 40.52 31.1526 40.824C30.7926 41.12 30.3406 41.268 29.7966 41.268C29.4526 41.268 29.1686 41.184 28.9446 41.016C28.7286 40.848 28.6206 40.584 28.6206 40.224C28.6206 39.816 28.7726 39.5 29.0766 39.276ZM35.7791 38.244V35.568H34.7231V42H35.7791V39.132H39.2711V42H40.3271V35.568H39.2711V38.244H35.7791ZM50.375 38.124C50.615 37.9 50.735 37.588 50.735 37.188C50.735 36.78 50.627 36.46 50.411 36.228C50.203 35.988 49.915 35.82 49.547 35.724C49.187 35.62 48.779 35.568 48.323 35.568H45.563V42H48.335C48.799 42 49.195 41.956 49.523 41.868C49.851 41.772 50.119 41.64 50.327 41.472C50.535 41.304 50.687 41.104 50.783 40.872C50.887 40.64 50.939 40.388 50.939 40.116C50.939 39.636 50.791 39.284 50.495 39.06C50.199 38.828 49.851 38.684 49.451 38.628V38.58C49.827 38.5 50.135 38.348 50.375 38.124ZM49.427 39.324C49.707 39.484 49.847 39.748 49.847 40.116C49.847 40.492 49.707 40.76 49.427 40.92C49.147 41.072 48.743 41.148 48.215 41.148H46.619V39.084H48.191C48.735 39.084 49.147 39.164 49.427 39.324ZM49.331 36.66C49.555 36.796 49.667 37.016 49.667 37.32C49.667 37.624 49.531 37.848 49.259 37.992C48.987 38.136 48.591 38.208 48.071 38.208H46.619V36.444H48.263C48.759 36.444 49.115 36.516 49.331 36.66ZM56.653 35.976C56.277 35.632 55.697 35.46 54.913 35.46C54.497 35.46 54.097 35.516 53.713 35.628C53.329 35.732 52.997 35.86 52.717 36.012L53.041 36.804C53.305 36.676 53.589 36.564 53.893 36.468C54.197 36.364 54.517 36.312 54.853 36.312C55.277 36.312 55.605 36.416 55.837 36.624C56.069 36.832 56.185 37.204 56.185 37.74V38.124L55.093 38.16C54.045 38.192 53.269 38.384 52.765 38.736C52.261 39.08 52.009 39.572 52.009 40.212C52.009 40.644 52.097 41.004 52.273 41.292C52.449 41.572 52.689 41.78 52.993 41.916C53.305 42.052 53.653 42.12 54.037 42.12C54.397 42.12 54.701 42.084 54.949 42.012C55.205 41.94 55.429 41.828 55.621 41.676C55.821 41.516 56.013 41.32 56.197 41.088H56.245L56.449 42H57.217V37.62C57.217 36.868 57.029 36.32 56.653 35.976ZM53.557 39.276C53.869 39.052 54.425 38.924 55.225 38.892L56.173 38.856V39.432C56.173 40.056 55.993 40.52 55.633 40.824C55.273 41.12 54.821 41.268 54.277 41.268C53.933 41.268 53.649 41.184 53.425 41.016C53.209 40.848 53.101 40.584 53.101 40.224C53.101 39.816 53.253 39.5 53.557 39.276ZM67.9276 42V35.568H66.8716V41.112H64.0876V35.568H63.0316V41.112H60.2596V35.568H59.2036V42H67.9276ZM73.8848 35.808C73.4928 35.568 73.0208 35.448 72.4688 35.448C71.9008 35.448 71.4008 35.584 70.9688 35.856C70.5448 36.128 70.2128 36.516 69.9728 37.02C69.7408 37.524 69.6248 38.128 69.6248 38.832C69.6248 39.544 69.7528 40.148 70.0088 40.644C70.2728 41.132 70.6368 41.5 71.1008 41.748C71.5728 41.996 72.1128 42.12 72.7208 42.12C73.1608 42.12 73.5408 42.084 73.8608 42.012C74.1808 41.948 74.5048 41.844 74.8328 41.7V40.776C74.4968 40.92 74.1688 41.032 73.8488 41.112C73.5368 41.184 73.1768 41.22 72.7688 41.22C72.1288 41.22 71.6288 41.032 71.2688 40.656C70.9168 40.272 70.7328 39.716 70.7168 38.988H75.1208V38.352C75.1208 37.768 75.0128 37.26 74.7968 36.828C74.5888 36.388 74.2848 36.048 73.8848 35.808ZM71.2568 36.804C71.5528 36.476 71.9528 36.312 72.4568 36.312C72.8168 36.312 73.1088 36.392 73.3328 36.552C73.5648 36.704 73.7368 36.916 73.8488 37.188C73.9608 37.46 74.0168 37.78 74.0168 38.148H70.7408C70.7968 37.572 70.9688 37.124 71.2568 36.804ZM77.8143 36.456H80.6823V35.568H76.7583V42H77.8143V36.456ZM87.2085 40.2C87.3525 39.784 87.4245 39.308 87.4245 38.772C87.4245 38.06 87.2965 37.46 87.0405 36.972C86.7925 36.476 86.4445 36.1 85.9965 35.844C85.5565 35.58 85.0445 35.448 84.4605 35.448C83.8445 35.448 83.3125 35.58 82.8645 35.844C82.4165 36.1 82.0725 36.476 81.8325 36.972C81.5925 37.46 81.4725 38.06 81.4725 38.772C81.4725 39.308 81.5445 39.784 81.6885 40.2C81.8405 40.608 82.0485 40.956 82.3125 41.244C82.5765 41.532 82.8885 41.752 83.2485 41.904C83.6085 42.048 84.0005 42.12 84.4245 42.12C84.8805 42.12 85.2925 42.048 85.6605 41.904C86.0365 41.752 86.3525 41.532 86.6085 41.244C86.8725 40.956 87.0725 40.608 87.2085 40.2ZM82.7565 40.092C82.6285 39.716 82.5645 39.276 82.5645 38.772C82.5645 38.012 82.7125 37.416 83.0085 36.984C83.3045 36.552 83.7805 36.336 84.4365 36.336C84.8765 36.336 85.2325 36.436 85.5045 36.636C85.7845 36.828 85.9925 37.104 86.1285 37.464C86.2645 37.824 86.3325 38.26 86.3325 38.772C86.3325 39.276 86.2645 39.716 86.1285 40.092C86.0005 40.46 85.7965 40.744 85.5165 40.944C85.2365 41.144 84.8805 41.244 84.4485 41.244C84.0165 41.244 83.6605 41.144 83.3805 40.944C83.1005 40.744 82.8925 40.46 82.7565 40.092ZM99.1973 42V35.568H97.7933L95.7293 40.74L93.7013 35.568H92.2973V42H93.2453V37.932C93.2453 37.74 93.2413 37.552 93.2333 37.368C93.2333 37.184 93.2253 37.004 93.2093 36.828H93.2453L95.2853 42H96.1733L98.2733 36.828H98.3093C98.2933 37.004 98.2773 37.184 98.2613 37.368C98.2533 37.552 98.2493 37.728 98.2493 37.896V42H99.1973ZM105.426 35.976C105.05 35.632 104.47 35.46 103.686 35.46C103.27 35.46 102.87 35.516 102.486 35.628C102.102 35.732 101.77 35.86 101.49 36.012L101.814 36.804C102.078 36.676 102.362 36.564 102.666 36.468C102.97 36.364 103.29 36.312 103.626 36.312C104.05 36.312 104.378 36.416 104.61 36.624C104.842 36.832 104.958 37.204 104.958 37.74V38.124L103.866 38.16C102.818 38.192 102.042 38.384 101.538 38.736C101.034 39.08 100.782 39.572 100.782 40.212C100.782 40.644 100.87 41.004 101.046 41.292C101.222 41.572 101.462 41.78 101.766 41.916C102.078 42.052 102.426 42.12 102.81 42.12C103.17 42.12 103.474 42.084 103.722 42.012C103.978 41.94 104.202 41.828 104.394 41.676C104.594 41.516 104.786 41.32 104.97 41.088H105.018L105.222 42H105.99V37.62C105.99 36.868 105.802 36.32 105.426 35.976ZM102.33 39.276C102.642 39.052 103.198 38.924 103.998 38.892L104.946 38.856V39.432C104.946 40.056 104.766 40.52 104.406 40.824C104.046 41.12 103.594 41.268 103.05 41.268C102.706 41.268 102.422 41.184 102.198 41.016C101.982 40.848 101.874 40.584 101.874 40.224C101.874 39.816 102.026 39.5 102.33 39.276ZM109.033 36.456H111.901V35.568H107.977V42H109.033V36.456ZM117.344 35.976C116.968 35.632 116.388 35.46 115.604 35.46C115.188 35.46 114.788 35.516 114.404 35.628C114.02 35.732 113.688 35.86 113.408 36.012L113.732 36.804C113.996 36.676 114.28 36.564 114.584 36.468C114.888 36.364 115.208 36.312 115.544 36.312C115.968 36.312 116.296 36.416 116.528 36.624C116.76 36.832 116.876 37.204 116.876 37.74V38.124L115.784 38.16C114.736 38.192 113.96 38.384 113.456 38.736C112.952 39.08 112.7 39.572 112.7 40.212C112.7 40.644 112.788 41.004 112.964 41.292C113.14 41.572 113.38 41.78 113.684 41.916C113.996 42.052 114.344 42.12 114.728 42.12C115.088 42.12 115.392 42.084 115.64 42.012C115.896 41.94 116.12 41.828 116.312 41.676C116.512 41.516 116.704 41.32 116.888 41.088H116.936L117.14 42H117.908V37.62C117.908 36.868 117.72 36.32 117.344 35.976ZM114.248 39.276C114.56 39.052 115.116 38.924 115.916 38.892L116.864 38.856V39.432C116.864 40.056 116.684 40.52 116.324 40.824C115.964 41.12 115.512 41.268 114.968 41.268C114.624 41.268 114.34 41.184 114.116 41.016C113.9 40.848 113.792 40.584 113.792 40.224C113.792 39.816 113.944 39.5 114.248 39.276ZM122.859 35.652C122.499 35.516 122.075 35.448 121.587 35.448C121.187 35.448 120.799 35.484 120.423 35.556C120.047 35.628 119.687 35.74 119.343 35.892L119.715 36.732C120.035 36.596 120.327 36.496 120.591 36.432C120.863 36.36 121.175 36.324 121.527 36.324C121.999 36.324 122.359 36.4 122.607 36.552C122.863 36.704 122.991 36.932 122.991 37.236C122.991 37.596 122.823 37.852 122.487 38.004C122.159 38.148 121.719 38.22 121.167 38.22H120.471V39.084H121.335C121.751 39.084 122.091 39.124 122.355 39.204C122.627 39.284 122.831 39.404 122.967 39.564C123.103 39.716 123.171 39.916 123.171 40.164C123.171 40.436 123.095 40.652 122.943 40.812C122.791 40.964 122.583 41.076 122.319 41.148C122.063 41.22 121.775 41.256 121.455 41.256C121.015 41.256 120.607 41.204 120.231 41.1C119.863 40.996 119.543 40.88 119.271 40.752V41.7C119.439 41.788 119.631 41.864 119.847 41.928C120.071 41.992 120.319 42.04 120.591 42.072C120.871 42.104 121.163 42.12 121.467 42.12C122.099 42.12 122.615 42.036 123.015 41.868C123.423 41.7 123.723 41.472 123.915 41.184C124.115 40.896 124.215 40.576 124.215 40.224C124.215 39.896 124.147 39.628 124.011 39.42C123.883 39.212 123.711 39.044 123.495 38.916C123.279 38.788 123.043 38.688 122.787 38.616V38.568C123.163 38.464 123.459 38.3 123.675 38.076C123.891 37.844 123.999 37.532 123.999 37.14C123.999 36.78 123.899 36.476 123.699 36.228C123.499 35.972 123.219 35.78 122.859 35.652ZM126.762 39.804C126.77 39.668 126.774 39.564 126.774 39.492V35.568H125.778V42H127.086L130.506 36.624C130.498 36.728 130.49 36.884 130.482 37.092C130.474 37.292 130.466 37.496 130.458 37.704V38.208V42H131.442V35.568H130.146L126.702 40.956C126.71 40.876 126.718 40.772 126.726 40.644C126.734 40.508 126.742 40.368 126.75 40.224C126.758 40.072 126.762 39.932 126.762 39.804ZM134.545 38.244V35.568H133.489V42H134.545V39.132H138.037V42H139.093V35.568H138.037V38.244H134.545ZM145.305 35.976C144.929 35.632 144.349 35.46 143.565 35.46C143.149 35.46 142.749 35.516 142.365 35.628C141.981 35.732 141.649 35.86 141.369 36.012L141.693 36.804C141.957 36.676 142.241 36.564 142.545 36.468C142.849 36.364 143.169 36.312 143.505 36.312C143.929 36.312 144.257 36.416 144.489 36.624C144.721 36.832 144.837 37.204 144.837 37.74V38.124L143.745 38.16C142.697 38.192 141.921 38.384 141.417 38.736C140.913 39.08 140.661 39.572 140.661 40.212C140.661 40.644 140.749 41.004 140.925 41.292C141.101 41.572 141.341 41.78 141.645 41.916C141.957 42.052 142.305 42.12 142.689 42.12C143.049 42.12 143.353 42.084 143.601 42.012C143.857 41.94 144.081 41.828 144.273 41.676C144.473 41.516 144.665 41.32 144.849 41.088H144.897L145.101 42H145.869V37.62C145.869 36.868 145.681 36.32 145.305 35.976ZM142.209 39.276C142.521 39.052 143.077 38.924 143.877 38.892L144.825 38.856V39.432C144.825 40.056 144.645 40.52 144.285 40.824C143.925 41.12 143.473 41.268 142.929 41.268C142.585 41.268 142.301 41.184 142.077 41.016C141.861 40.848 141.753 40.584 141.753 40.224C141.753 39.816 141.905 39.5 142.209 39.276Z" fill="black"/>
</svg>
